<?xml version="1.0" encoding="UTF-8"?>
<svg width="279px" height="98px" viewBox="0 0 279 98" version="1.1" xmlns="http://www.w3.org/2000/svg" xmlns:xlink="http://www.w3.org/1999/xlink">
    <!-- Generator: Sketch 53.2 (72643) - https://sketchapp.com -->
    <title>speech-bubble</title>
    <desc>Created with Sketch.</desc>
    <g id="Page-1" stroke="none" stroke-width="1" fill="none" fill-rule="evenodd">
        <g id="WMI_Fun-Finder" transform="translate(-48.000000, -254.000000)">
            <g id="Group-46" transform="translate(48.000000, 254.000000)">
                <g id="speech-bubble" transform="translate(0.206700, 0.250000)">
                    <path d="M121.5238,15.3389 C113.8198,17.1829 106.1488,19.0199 98.4538,20.8599 L98.4538,43.2589 C97.7228,43.1119 97.0228,42.9149 96.3098,42.8379 C95.9598,42.8009 95.6138,42.7809 95.2738,42.7809 C93.4258,42.7809 91.7328,43.3499 90.2708,44.6289 C88.2478,46.3989 87.9608,49.1309 89.5568,51.1969 C90.3288,52.1949 91.3308,52.8999 92.5178,53.2919 C93.2708,53.5399 94.0678,53.6569 94.8448,53.8329 L95.9728,53.8329 C96.0948,53.8099 96.2158,53.7769 96.3388,53.7649 C97.5928,53.6349 98.7628,53.2549 99.8068,52.5459 C101.2958,51.5339 102.2808,50.1849 102.2858,48.3219 C102.3048,41.2669 102.2968,34.2109 102.2818,27.1549 C102.2808,26.7619 102.3948,26.6259 102.7638,26.5389 C106.8248,25.5839 110.8818,24.6119 114.9398,23.6449 C115.8478,23.4289 116.7548,23.2109 117.6848,22.9879 L117.6848,36.4709 C117.5438,36.4269 117.4268,36.3899 117.3108,36.3549 C116.3608,36.0629 115.4248,35.9079 114.5108,35.9079 C112.9738,35.9079 111.4948,36.3459 110.1028,37.3069 C107.0568,39.4099 106.9848,43.2399 109.9018,45.4499 C111.2358,46.4589 112.9458,46.9669 114.6548,46.9669 C116.3188,46.9669 117.9818,46.4849 119.2918,45.5179 C120.7258,44.4579 121.5438,43.0639 121.5438,41.2399 C121.5418,32.7309 121.5428,24.2219 121.5418,15.7119 C121.5418,15.5929 121.5298,15.4749 121.5238,15.3389 M120.0638,17.2079 L120.0648,27.0739 L120.0658,41.2399 C120.0658,42.5149 119.5408,43.4959 118.4138,44.3289 C117.4008,45.0769 116.0658,45.4889 114.6548,45.4889 C113.2018,45.4889 111.8308,45.0569 110.7948,44.2729 C109.7698,43.4969 109.2188,42.4679 109.2428,41.3749 C109.2678,40.2759 109.8708,39.2629 110.9418,38.5229 C112.0498,37.7579 113.2178,37.3859 114.5108,37.3859 C115.2558,37.3859 116.0528,37.5139 116.8778,37.7669 L117.1128,37.8399 L117.2458,37.8809 L119.1618,38.4769 L119.1618,36.4709 L119.1618,22.9879 L119.1618,21.1149 L117.3408,21.5519 L116.4778,21.7579 L114.5968,22.2079 L112.1518,22.7909 C108.9108,23.5649 105.6698,24.3379 102.4248,25.1009 C101.3778,25.3479 100.8018,26.0779 100.8038,27.1579 C100.8168,32.9859 100.8288,40.6589 100.8088,48.3179 C100.8048,49.5229 100.2228,50.4779 98.9768,51.3239 C98.1788,51.8649 97.2668,52.1839 96.1868,52.2949 C96.0638,52.3079 95.9408,52.3299 95.8188,52.3569 L95.0058,52.3569 C94.8088,52.3139 94.6098,52.2739 94.4108,52.2339 C93.8998,52.1299 93.4168,52.0319 92.9808,51.8889 C92.0698,51.5879 91.3118,51.0519 90.7258,50.2939 C89.5948,48.8299 89.8028,46.9999 91.2428,45.7409 C92.3828,44.7429 93.7018,44.2589 95.2738,44.2589 C95.5578,44.2589 95.8528,44.2749 96.1518,44.3069 C96.5548,44.3509 96.9858,44.4469 97.4428,44.5509 C97.6808,44.6049 97.9198,44.6579 98.1628,44.7069 L99.9308,45.0639 L99.9308,43.2589 L99.9308,22.0259 L114.7238,18.4849 L120.0638,17.2079" id="Fill-28" fill="#EC008C" fill-rule="evenodd"></path>
                    <path d="M38.5819,49.4248 C37.6499,46.8978 37.6109,44.3248 38.1119,41.5458 C41.3399,44.7748 44.4419,47.8758 47.6709,51.1058 C44.8939,51.6038 42.3219,51.5658 39.7949,50.6378 L38.5819,49.4248 Z" id="Stroke-30" stroke="#EC008C" stroke-width="1.477"></path>
                    <path d="M70.1195,20.3135 C71.0525,22.8425 71.0725,25.4175 70.5865,28.1995 C67.3535,24.9655 64.2505,21.8635 61.0175,18.6295 C63.8025,18.1395 66.3775,18.1655 68.9065,19.0995 C69.3105,19.5035 69.7155,19.9085 70.1195,20.3135 Z" id="Stroke-32" stroke="#EC008C" stroke-width="1.477"></path>
                    <path d="M63.6283,25.7441 C65.4723,27.5891 67.3023,29.4471 69.1703,31.2661 C69.6413,31.7251 69.7483,32.1251 69.5453,32.7641 C66.7673,41.5041 61.0333,47.2671 52.2873,50.0541 C51.5963,50.2731 51.1913,50.1431 50.7023,49.6491 C47.0083,45.9171 43.2953,42.2031 39.5623,38.5101 C39.0643,38.0171 38.9453,37.6081 39.1653,36.9221 C41.9533,28.1781 47.7163,22.4431 56.4593,19.6691 C57.1013,19.4651 57.4983,19.5841 57.9543,20.0511 C59.8253,21.9691 61.7333,23.8491 63.6283,25.7441 Z" id="Stroke-34" stroke="#EC008C" stroke-width="1.477"></path>
                    <path d="M60.8963,31.4355 C59.8293,30.3695 58.8293,29.3695 57.7883,28.3275 C57.4863,28.6285 57.2243,28.8915 56.9403,29.1755 C57.2873,29.5895 57.5963,29.9565 57.8993,30.3185 L56.5383,31.6795 C56.1253,31.3545 55.7473,31.0565 55.3123,30.7135 C55.0153,31.0425 54.7683,31.3185 54.5243,31.5885 C54.8953,32.0245 55.1863,32.3675 55.4943,32.7285 C55.0213,33.2025 54.6003,33.6235 54.1513,34.0725 C53.7403,33.7455 53.3613,33.4455 52.9253,33.0985 C52.6283,33.4285 52.3793,33.7055 52.1253,33.9865 C52.4853,34.4185 52.7743,34.7645 53.0613,35.1085 C52.5783,35.5905 52.1443,36.0255 51.7123,36.4565 C51.2993,36.1155 50.9533,35.8285 50.6083,35.5425 C50.2903,35.8615 50.0313,36.1205 49.7573,36.3945 C50.1033,36.8115 50.3923,37.1615 50.6783,37.5065 L49.3043,38.8805 C48.9043,38.5375 48.5613,38.2425 48.2013,37.9335 C47.8893,38.2465 47.6273,38.5075 47.3543,38.7805 C48.4103,39.8355 49.4103,40.8345 50.4403,41.8655 C50.7483,41.5575 51.0103,41.2955 51.2973,41.0085 C50.9543,40.6175 50.6553,40.2765 50.3263,39.9025 C50.7973,39.4315 51.2363,38.9935 51.7043,38.5245 C52.0993,38.8495 52.4513,39.1395 52.8473,39.4655 C53.1363,39.1775 53.3993,38.9145 53.6933,38.6205 C53.3543,38.2035 53.0533,37.8335 52.7553,37.4665 C53.2353,36.9875 53.6563,36.5665 54.0953,36.1275 C54.4823,36.4565 54.8273,36.7495 55.1993,37.0655 C55.5153,36.7485 55.7943,36.4705 56.0673,36.1975 C55.7203,35.7705 55.4373,35.4235 55.1473,35.0675 C55.6253,34.5895 56.0443,34.1695 56.4923,33.7225 C56.8973,34.0565 57.2663,34.3615 57.6923,34.7125 C57.9953,34.3785 58.2403,34.1075 58.4863,33.8355 C58.1163,33.3875 57.8273,33.0395 57.5453,32.6995 C58.0453,32.1995 58.4873,31.7565 58.9323,31.3125 C59.3283,31.6585 59.6693,31.9565 60.0473,32.2855 C60.3343,31.9975 60.5773,31.7545 60.8963,31.4355" id="Fill-36" fill="#242D33" fill-rule="evenodd"></path>
                    <path d="M167.3783,34.5811 C167.3133,33.6221 166.6493,32.9051 165.6913,32.8921 C164.7263,32.8781 163.9823,33.6181 163.9833,34.5821 C163.9853,35.5411 164.6983,36.2581 165.6553,36.2711 C166.6223,36.2851 167.3163,35.5451 167.3783,34.5811 M175.1703,25.1561 C174.7183,26.0361 174.2693,26.9171 173.8153,27.7961 C173.0153,29.3461 172.2103,30.8931 171.4083,32.4421 C170.7303,33.7551 170.0543,35.0681 169.3733,36.3791 C169.1893,36.7331 168.9983,37.0851 168.7933,37.4281 C168.7233,37.5441 168.6123,37.6581 168.4933,37.7211 C167.0023,38.5031 165.5063,39.2741 164.0113,40.0501 C162.0113,41.0861 160.0123,42.1221 158.0133,43.1601 C157.4253,43.4661 156.8393,43.7751 156.1793,44.0221 C156.4443,43.4911 156.7083,42.9581 156.9793,42.4291 C157.0773,42.2341 157.1983,42.0521 157.2983,41.8581 C158.1803,40.1461 159.0583,38.4331 159.9403,36.7211 C160.6153,35.4071 161.2933,34.0951 161.9753,32.7841 C162.1593,32.4301 162.3493,32.0771 162.5553,31.7351 C162.6253,31.6181 162.7343,31.5051 162.8553,31.4411 C164.3463,30.6601 165.8423,29.8891 167.3363,29.1131 C169.3363,28.0771 171.3363,27.0401 173.3353,26.0031 C173.9233,25.6971 174.5093,25.3881 175.0963,25.0801 C175.1203,25.1051 175.1453,25.1311 175.1703,25.1561" id="Fill-38" fill="#242D33" fill-rule="evenodd"></path>
                    <path d="M165.6849,15.626 C155.2049,15.626 146.7079,24.122 146.7079,34.603 C146.7079,45.083 155.2049,53.58 165.6849,53.58 C176.1659,53.58 184.6629,45.083 184.6629,34.603 C184.6629,24.122 176.1659,15.626 165.6849,15.626 M165.6849,17.104 C175.3339,17.104 183.1849,24.953 183.1849,34.603 C183.1849,44.252 175.3339,52.103 165.6849,52.103 C156.0369,52.103 148.1859,44.252 148.1859,34.603 C148.1859,24.953 156.0369,17.104 165.6849,17.104" id="Fill-40" fill="#EC008C" fill-rule="evenodd"></path>
                    <path d="M224.0765,51.2549 C223.9175,51.0989 223.7935,50.9839 223.6785,50.8619 C218.6485,45.5349 213.6205,40.2079 208.5945,34.8779 C207.2055,33.4059 206.2775,31.6819 205.9115,29.6899 C205.3505,26.6419 206.0335,23.8809 207.9695,21.4519 C209.4685,19.5709 211.4325,18.4449 213.7945,18.0569 C216.3785,17.6309 218.8425,17.9879 221.1075,19.3789 C221.7665,19.7839 222.3545,20.2789 222.8865,20.8409 C223.2665,21.2419 223.6435,21.6479 224.0935,22.1249 C224.1395,22.0369 224.1625,21.9529 224.2155,21.8999 C224.7965,21.3109 225.3465,20.6839 225.9745,20.1499 C227.3395,18.9899 228.9315,18.2949 230.6985,17.9969 C231.5645,17.8519 232.4345,17.8049 233.3075,17.8899 C235.4285,18.0979 237.3305,18.8499 238.9475,20.2479 C240.7665,21.8209 241.8795,23.8139 242.2355,26.1899 C242.7365,29.5329 241.7705,32.4489 239.4705,34.9009 C234.3895,40.3139 229.2835,45.7019 224.1885,51.1019 C224.1485,51.1449 224.1195,51.1959 224.0765,51.2549 Z" id="Stroke-42" stroke="#EC008C" stroke-width="1.477"></path>
                    <path d="M265.014,0 L13.572,0 C6.107,0 0,6.108 0,13.573 L0,59.272 C0,66.737 6.107,72.845 13.572,72.845 L21.014,72.845 L37.449,97.026 L51.362,72.845 L265.014,72.845 C272.479,72.845 278.587,66.737 278.587,59.272 L278.587,13.573 C278.587,6.108 272.479,0 265.014,0 M265.014,1.697 C271.563,1.697 276.89,7.024 276.89,13.573 L276.89,59.272 C276.89,65.821 271.563,71.148 265.014,71.148 L51.362,71.148 L50.381,71.148 L49.891,71.999 L37.329,93.833 L22.416,71.892 L21.911,71.148 L21.014,71.148 L13.572,71.148 C7.024,71.148 1.696,65.821 1.696,59.272 L1.696,13.573 C1.696,7.024 7.024,1.697 13.572,1.697 L265.014,1.697" id="Fill-44" fill="#EC008C" fill-rule="evenodd"></path>
                </g>
            </g>
        </g>
    </g>
</svg>