<?xml version="1.0" encoding="UTF-8"?>
<svg width="57px" height="32px" viewBox="0 0 57 32" version="1.1" xmlns="http://www.w3.org/2000/svg" xmlns:xlink="http://www.w3.org/1999/xlink">
    <!-- Generator: Sketch 53.2 (72643) - https://sketchapp.com -->
    <title>Group 142</title>
    <desc>Created with Sketch.</desc>
    <g id="Page-1" stroke="none" stroke-width="1" fill="none" fill-rule="evenodd">
        <g id="WMI_Fun-Finder" transform="translate(-19.000000, -20.000000)" fill="#EC008C">
            <g id="Group-142" transform="translate(19.000000, 20.000000)">
                <path d="M23.8057,0.9341 L28.2177,0.9341 C31.3547,0.9341 33.2217,4.4381 31.6047,7.2931 L19.3157,28.9891 C18.5437,30.3501 17.1377,31.1951 15.6407,31.1951 L11.2287,31.1951 C8.0917,31.1951 6.2247,27.6901 7.8417,24.8361 L20.1307,3.1401 C20.9027,1.7791 22.3087,0.9341 23.8057,0.9341" id="Fill-134"></path>
                <path d="M41.6597,0.9341 L46.0717,0.9341 C49.2087,0.9341 51.0757,4.4381 49.4587,7.2931 L37.1697,28.9891 C36.3977,30.3501 34.9917,31.1951 33.4947,31.1951 L29.0827,31.1951 C25.9457,31.1951 24.0787,27.6901 25.6957,24.8361 L37.9847,3.1401 C38.7567,1.7791 40.1627,0.9341 41.6597,0.9341" id="Fill-136"></path>
                <path d="M10.4604,0.9341 L0.7634,0.9341 L6.0654,20.8311 L13.8214,7.2001 C15.3994,4.3771 13.5514,0.9341 10.4604,0.9341" id="Fill-138"></path>
                <path d="M46.833,31.1948 L56.529,31.1948 L51.228,11.2978 L43.471,24.9288 C41.894,27.7518 43.741,31.1948 46.833,31.1948" id="Fill-140"></path>
            </g>
        </g>
    </g>
</svg>